<svg xmlns="http://www.w3.org/2000/svg" width="418" height="418"><rect x="0" y="0" width="100%" height="100%" fill="rgb(206, 54, 136)"  /><rect x="0" y="13" width="100%" height="9" opacity="0.05466666666666667" fill="#ddd"  /><rect x="0" y="28" width="100%" height="17" opacity="0.12400000000000001" fill="#ddd"  /><rect x="0" y="64" width="100%" height="20" opacity="0.15" fill="#222"  /><rect x="0" y="93" width="100%" height="11" opacity="0.07200000000000001" fill="#ddd"  /><rect x="0" y="109" width="100%" height="12" opacity="0.08066666666666666" fill="#222"  /><rect x="0" y="140" width="100%" height="8" opacity="0.046" fill="#222"  /><rect x="0" y="157" width="100%" height="12" opacity="0.08066666666666666" fill="#222"  /><rect x="0" y="175" width="100%" height="12" opacity="0.08066666666666666" fill="#222"  /><rect x="0" y="194" width="100%" height="13" opacity="0.08933333333333333" fill="#ddd"  /><rect x="0" y="224" width="100%" height="13" opacity="0.08933333333333333" fill="#ddd"  /><rect x="0" y="249" width="100%" height="18" opacity="0.13266666666666665" fill="#222"  /><rect x="0" y="273" width="100%" height="9" opacity="0.05466666666666667" fill="#ddd"  /><rect x="0" y="299" width="100%" height="6" opacity="0.028666666666666667" fill="#222"  /><rect x="0" y="321" width="100%" height="6" opacity="0.028666666666666667" fill="#222"  /><rect x="0" y="335" width="100%" height="15" opacity="0.10666666666666667" fill="#ddd"  /><rect x="0" y="362" width="100%" height="17" opacity="0.12400000000000001" fill="#ddd"  /><rect x="0" y="385" width="100%" height="11" opacity="0.07200000000000001" fill="#ddd"  /><rect x="0" y="408" width="100%" height="10" opacity="0.06333333333333334" fill="#222"  /><rect x="13" y="0" width="9" height="100%" opacity="0.05466666666666667" fill="#ddd"  /><rect x="28" y="0" width="17" height="100%" opacity="0.12400000000000001" fill="#ddd"  /><rect x="64" y="0" width="20" height="100%" opacity="0.15" fill="#222"  /><rect x="93" y="0" width="11" height="100%" opacity="0.07200000000000001" fill="#ddd"  /><rect x="109" y="0" width="12" height="100%" opacity="0.08066666666666666" fill="#222"  /><rect x="140" y="0" width="8" height="100%" opacity="0.046" fill="#222"  /><rect x="157" y="0" width="12" height="100%" opacity="0.08066666666666666" fill="#222"  /><rect x="175" y="0" width="12" height="100%" opacity="0.08066666666666666" fill="#222"  /><rect x="194" y="0" width="13" height="100%" opacity="0.08933333333333333" fill="#ddd"  /><rect x="224" y="0" width="13" height="100%" opacity="0.08933333333333333" fill="#ddd"  /><rect x="249" y="0" width="18" height="100%" opacity="0.13266666666666665" fill="#222"  /><rect x="273" y="0" width="9" height="100%" opacity="0.05466666666666667" fill="#ddd"  /><rect x="299" y="0" width="6" height="100%" opacity="0.028666666666666667" fill="#222"  /><rect x="321" y="0" width="6" height="100%" opacity="0.028666666666666667" fill="#222"  /><rect x="335" y="0" width="15" height="100%" opacity="0.10666666666666667" fill="#ddd"  /><rect x="362" y="0" width="17" height="100%" opacity="0.12400000000000001" fill="#ddd"  /><rect x="385" y="0" width="11" height="100%" opacity="0.07200000000000001" fill="#ddd"  /><rect x="408" y="0" width="10" height="100%" opacity="0.06333333333333334" fill="#222"  /></svg>